<svg width="330" height="68" viewBox="0 0 330 68" fill="none" xmlns="http://www.w3.org/2000/svg">
<path fill-rule="evenodd" clip-rule="evenodd" d="M330 0H0V68H330V0ZM14 9C11.2386 9 9 11.2386 9 14V54C9 56.7614 11.2386 59 14 59H54C56.7614 59 59 56.7614 59 54V14C59 11.2386 56.7614 9 54 9H14Z" fill="#141414"/>
<path fill-rule="evenodd" clip-rule="evenodd" d="M34 49C32.8954 49 32 48.1046 32 47V36H21C19.8954 36 19 35.1046 19 34C19 32.8954 19.8954 32 21 32H32V21C32 19.8954 32.8954 19 34 19C35.1046 19 36 19.8954 36 21V32H47C48.1046 32 49 32.8954 49 34C49 35.1046 48.1046 36 47 36H36V47C36 48.1046 35.1046 49 34 49Z" fill="#141414"/>
</svg>
