<svg width="12" height="12" viewBox="0 0 12 12" fill="none" xmlns="http://www.w3.org/2000/svg">
<mask id="mask0_11_1307" style="mask-type:alpha" maskUnits="userSpaceOnUse" x="-1" y="-1" width="14" height="14">
<rect width="12" height="12" fill="#C4C4C4" stroke="#848484" stroke-width="0.3"/>
</mask>
<g mask="url(#mask0_11_1307)">
<path fill-rule="evenodd" clip-rule="evenodd" d="M4.30885 6.32942C4.6315 6.00678 4.67897 5.50981 4.54315 5.07421C4.18162 3.91476 4.46004 2.59878 5.3784 1.68041C6.69632 0.362495 8.83308 0.362495 10.151 1.68041C11.4689 2.99833 11.4689 5.13509 10.151 6.45301C9.23264 7.37137 7.91666 7.64979 6.75721 7.28827C6.32161 7.15245 5.82465 7.19992 5.50201 7.52256L2.99211 10.0325L2.39554 10.629C2.06606 10.9585 1.53187 10.9585 1.20239 10.629V10.629V10.629C0.872909 10.2996 0.872909 9.76536 1.20239 9.43589L1.79896 8.83931L4.30885 6.32942ZM5.97497 5.85643C5.97496 5.85643 5.97496 5.85643 5.97495 5.85642C4.98654 4.86798 4.98655 3.26543 5.97498 2.277C6.96342 1.28856 8.56599 1.28856 9.55443 2.277C10.5429 3.26544 10.5429 4.86801 9.55443 5.85645C8.566 6.84488 6.96344 6.84489 5.975 5.85647C5.975 5.85646 5.97499 5.85646 5.97499 5.85645V5.85645C5.97499 5.85644 5.97498 5.85644 5.97497 5.85643V5.85643Z" fill="#848484"/>
<path d="M5.975 5.85647L5.86894 5.96254L5.975 5.85647ZM5.97495 5.85642L5.86889 5.96249L5.97495 5.85642ZM5.27234 1.57435C4.313 2.53368 4.02247 3.90828 4.39995 5.11886L4.68635 5.02956C4.34076 3.92124 4.60707 2.66388 5.48447 1.78648L5.27234 1.57435ZM10.2571 1.57435C8.88057 0.197851 6.64883 0.197851 5.27234 1.57435L5.48447 1.78648C6.74381 0.52714 8.7856 0.52714 10.0449 1.78648L10.2571 1.57435ZM10.2571 6.55907C11.6336 5.18258 11.6336 2.95084 10.2571 1.57435L10.0449 1.78648C11.3043 3.04582 11.3043 5.08761 10.0449 6.34694L10.2571 6.55907ZM6.71256 7.43147C7.92314 7.80894 9.29773 7.51841 10.2571 6.55907L10.0449 6.34694C9.16754 7.22434 7.91019 7.49065 6.80186 7.14507L6.71256 7.43147ZM5.39594 7.4165L2.88605 9.92639L3.09818 10.1385L5.60808 7.62863L5.39594 7.4165ZM2.88605 9.92639L2.28947 10.523L2.5016 10.7351L3.09818 10.1385L2.88605 9.92639ZM1.30845 9.54195L1.90503 8.94538L1.6929 8.73324L1.09632 9.32982L1.30845 9.54195ZM1.90503 8.94538L4.41492 6.43549L4.20279 6.22335L1.6929 8.73324L1.90503 8.94538ZM5.86891 2.17093C4.82191 3.21794 4.8219 4.91547 5.86889 5.96249L6.08102 5.75036C5.15119 4.8205 5.1512 3.31292 6.08105 2.38307L5.86891 2.17093ZM9.66049 2.17093C8.61348 1.12392 6.91593 1.12392 5.86891 2.17093L6.08105 2.38307C7.0109 1.45321 8.5185 1.45321 9.44836 2.38307L9.66049 2.17093ZM9.66049 5.96251C10.7075 4.9155 10.7075 3.21795 9.66049 2.17093L9.44836 2.38307C10.3782 3.31293 10.3782 4.82052 9.44836 5.75038L9.66049 5.96251ZM5.86894 5.96254C6.91595 7.00953 8.61349 7.00952 9.66049 5.96251L9.44836 5.75038C8.51851 6.68023 7.01092 6.68024 6.08106 5.7504L5.86894 5.96254ZM6.08106 5.7504C6.09738 5.76672 6.10987 5.78673 6.11729 5.80902L5.83269 5.90389C5.84012 5.92618 5.85261 5.94621 5.86894 5.96254L6.08106 5.7504ZM1.30845 10.523C1.03755 10.2521 1.03755 9.81285 1.30845 9.54195L1.09632 9.32982C0.708265 9.71788 0.708265 10.347 1.09632 10.7351L1.30845 10.523ZM6.11729 5.80902C6.10236 5.76422 6.0672 5.72906 6.0224 5.71413L5.92753 5.99873C5.88275 5.98381 5.84762 5.94867 5.83269 5.90389L6.11729 5.80902ZM6.80186 7.14507C6.33258 6.99874 5.77065 7.04179 5.39594 7.4165L5.60808 7.62863C5.87865 7.35806 6.31065 7.30615 6.71256 7.43147L6.80186 7.14507ZM5.86889 5.96249C5.88477 5.97837 5.90466 5.99111 5.92753 5.99873L6.0224 5.71413C6.04527 5.72175 6.06515 5.73449 6.08102 5.75036L5.86889 5.96249ZM2.28947 10.523C2.01857 10.7939 1.57936 10.7939 1.30845 10.523L1.09632 10.7351C1.48438 11.1232 2.11355 11.1232 2.5016 10.7351L2.28947 10.523ZM4.39995 5.11886C4.52527 5.52077 4.47336 5.95278 4.20279 6.22335L4.41492 6.43549C4.78963 6.06078 4.83268 5.49885 4.68635 5.02956L4.39995 5.11886Z" fill="#848484"/>
</g>
</svg>
