<svg width="560" height="92" viewBox="0 0 560 92" fill="none" xmlns="http://www.w3.org/2000/svg">
<path fill-rule="evenodd" clip-rule="evenodd" d="M0 0H560V92H0V0ZM10 15C10 12.2386 12.2386 10 15 10H78C80.7614 10 83 12.2386 83 15V77C83 79.7614 80.7614 82 78 82H15C12.2386 82 10 79.7614 10 77V15ZM547.507 22.5104C548.06 23.0637 548.957 23.0637 549.51 22.5104C550.064 21.9572 550.064 21.0602 549.51 20.5069L545.503 16.5L549.51 12.4931C550.064 11.9398 550.064 11.0428 549.51 10.4896C548.957 9.93635 548.06 9.93635 547.507 10.4896L543.5 14.4965L539.493 10.4896C538.94 9.93636 538.043 9.93636 537.49 10.4896C536.936 11.0428 536.936 11.9398 537.49 12.4931L541.497 16.5L537.49 20.5069C536.936 21.0602 536.936 21.9572 537.49 22.5104C538.043 23.0637 538.94 23.0637 539.493 22.5104L543.5 18.5035L547.507 22.5104Z" fill="white"/>
<path d="M59.6982 49.44V46.7816H57.9213V49.44C57.9213 55.8013 52.6557 60.959 46.2932 60.959H46.2879C39.9259 60.959 34.769 55.8006 34.769 49.44V46.7816H33V49.44C33 56.1367 37.9651 61.621 44.4066 62.5453V67.4723H37.3286C35.8009 67.4723 34.5657 68.7102 34.5657 70.2365C34.5657 71.7628 35.8009 73 37.3286 73H55.3662C56.8925 73 58.1291 71.7628 58.1291 70.2365C58.1291 68.7102 56.8927 67.4723 55.3662 67.4723H47.9531V62.5678C54.5009 61.7415 59.6982 56.2144 59.6982 49.44Z" fill="white"/>
<path d="M46.2903 20C40.9046 20 36.5403 24.3669 36.5403 29.7493V45.0076H56.1521V29.7493C56.1521 24.3668 51.6762 20 46.2903 20Z" fill="white"/>
<path d="M46.2903 59.0771C51.6761 59.0771 56.1521 54.7102 56.1521 49.3278V46.7818H36.5403V49.3278C36.5403 54.7109 40.9039 59.0771 46.2903 59.0771Z" fill="white"/>
</svg>
