<svg width="36" height="36" viewBox="0 0 36 36" fill="none" xmlns="http://www.w3.org/2000/svg">
<mask id="path-1-inside-1_11_640" fill="white">
<path fill-rule="evenodd" clip-rule="evenodd" d="M31.3673 14.7143L34.3806 15.2068C34.7383 15.2652 35.0007 15.5742 35 15.9363V20.0016C35 20.36 34.7428 20.6675 34.3887 20.7296L31.3508 21.2629C30.5327 21.4065 29.8829 22.0108 29.5666 22.7788C29.2469 23.5547 29.2865 24.4502 29.7769 25.1311L31.5598 27.6065C31.7719 27.9007 31.7387 28.305 31.4829 28.5614L28.6089 31.4374C28.3546 31.6909 27.9555 31.7271 27.6613 31.5194L25.1694 29.7715C24.4759 29.285 23.5745 29.2522 22.7928 29.5785C22.0188 29.9016 21.4075 30.5588 21.2609 31.3846L20.7276 34.3902C20.6655 34.7428 20.3588 35 20.0003 35H15.9347C15.5732 35 15.265 34.7391 15.2066 34.3836L14.7133 31.4214C14.5739 30.5843 13.9595 29.9174 13.1754 29.5928C12.3992 29.2714 11.5027 29.3043 10.8146 29.7862L8.33873 31.5202C8.04526 31.7264 7.64536 31.6909 7.39182 31.4374L4.51783 28.5614C4.26281 28.305 4.22954 27.9021 4.43947 27.6087L6.17021 25.1881C6.6668 24.4936 6.70337 23.5812 6.37625 22.7925C6.05307 22.0134 5.39411 21.4006 4.56353 21.2533L1.60984 20.7296C1.25724 20.6668 1 20.36 1 20.0016V15.9363C1 15.5757 1.26167 15.2667 1.61797 15.2076L4.55362 14.7188C5.39387 14.5788 6.0642 13.9613 6.39156 13.1749C6.71655 12.3942 6.6841 11.4932 6.1996 10.8001L4.47865 8.33809C4.27242 8.04465 4.3079 7.64552 4.56144 7.392L7.43469 4.519C7.69119 4.264 8.09257 4.23 8.38751 4.44065L10.8429 6.19436C11.5246 6.68124 12.4159 6.72075 13.1907 6.4021C13.9712 6.08108 14.5852 5.41584 14.7212 4.58293L15.2051 1.62013C15.2635 1.26239 15.5725 1 15.9347 1H20.0003C20.3595 1 20.6663 1.2587 20.7284 1.612L21.2548 4.617C21.3991 5.44063 22.0057 6.09485 22.778 6.41518C23.5605 6.73968 24.4659 6.70211 25.1537 6.20775L27.6073 4.44435C27.9015 4.23222 28.3051 4.26548 28.5616 4.52122L31.4363 7.39422C31.6899 7.64848 31.7254 8.04835 31.5191 8.34178L29.748 10.8658C29.2711 11.5455 29.2368 12.4301 29.5554 13.197C29.8772 13.9719 30.5391 14.579 31.3673 14.7143ZM18 12C14.6863 12 12 14.6863 12 18C12 21.3137 14.6863 24 18 24C21.3137 24 24 21.3137 24 18C24 14.6863 21.3137 12 18 12Z"/>
</mask>
<path fill-rule="evenodd" clip-rule="evenodd" d="M31.3673 14.7143L34.3806 15.2068C34.7383 15.2652 35.0007 15.5742 35 15.9363V20.0016C35 20.36 34.7428 20.6675 34.3887 20.7296L31.3508 21.2629C30.5327 21.4065 29.8829 22.0108 29.5666 22.7788C29.2469 23.5547 29.2865 24.4502 29.7769 25.1311L31.5598 27.6065C31.7719 27.9007 31.7387 28.305 31.4829 28.5614L28.6089 31.4374C28.3546 31.6909 27.9555 31.7271 27.6613 31.5194L25.1694 29.7715C24.4759 29.285 23.5745 29.2522 22.7928 29.5785C22.0188 29.9016 21.4075 30.5588 21.2609 31.3846L20.7276 34.3902C20.6655 34.7428 20.3588 35 20.0003 35H15.9347C15.5732 35 15.265 34.7391 15.2066 34.3836L14.7133 31.4214C14.5739 30.5843 13.9595 29.9174 13.1754 29.5928C12.3992 29.2714 11.5027 29.3043 10.8146 29.7862L8.33873 31.5202C8.04526 31.7264 7.64536 31.6909 7.39182 31.4374L4.51783 28.5614C4.26281 28.305 4.22954 27.9021 4.43947 27.6087L6.17021 25.1881C6.6668 24.4936 6.70337 23.5812 6.37625 22.7925C6.05307 22.0134 5.39411 21.4006 4.56353 21.2533L1.60984 20.7296C1.25724 20.6668 1 20.36 1 20.0016V15.9363C1 15.5757 1.26167 15.2667 1.61797 15.2076L4.55362 14.7188C5.39387 14.5788 6.0642 13.9613 6.39156 13.1749C6.71655 12.3942 6.6841 11.4932 6.1996 10.8001L4.47865 8.33809C4.27242 8.04465 4.3079 7.64552 4.56144 7.392L7.43469 4.519C7.69119 4.264 8.09257 4.23 8.38751 4.44065L10.8429 6.19436C11.5246 6.68124 12.4159 6.72075 13.1907 6.4021C13.9712 6.08108 14.5852 5.41584 14.7212 4.58293L15.2051 1.62013C15.2635 1.26239 15.5725 1 15.9347 1H20.0003C20.3595 1 20.6663 1.2587 20.7284 1.612L21.2548 4.617C21.3991 5.44063 22.0057 6.09485 22.778 6.41518C23.5605 6.73968 24.4659 6.70211 25.1537 6.20775L27.6073 4.44435C27.9015 4.23222 28.3051 4.26548 28.5616 4.52122L31.4363 7.39422C31.6899 7.64848 31.7254 8.04835 31.5191 8.34178L29.748 10.8658C29.2711 11.5455 29.2368 12.4301 29.5554 13.197C29.8772 13.9719 30.5391 14.579 31.3673 14.7143ZM18 12C14.6863 12 12 14.6863 12 18C12 21.3137 14.6863 24 18 24C21.3137 24 24 21.3137 24 18C24 14.6863 21.3137 12 18 12Z" fill="#848484"/>
<path d="M34.3806 15.2068L34.2193 16.1937L34.2195 16.1938L34.3806 15.2068ZM31.3673 14.7143L31.5286 13.7274L31.3673 14.7143ZM35 15.9363L34 15.9343V15.9363H35ZM34.3887 20.7296L34.216 19.7446L34.2158 19.7447L34.3887 20.7296ZM31.3508 21.2629L31.1779 20.278L31.3508 21.2629ZM29.5666 22.7788L28.642 22.3979L28.642 22.3979L29.5666 22.7788ZM29.7769 25.1311L30.5883 24.5467V24.5467L29.7769 25.1311ZM31.5598 27.6065L30.7484 28.1909L30.7487 28.1914L31.5598 27.6065ZM31.4829 28.5614L32.1903 29.2683L32.191 29.2676L31.4829 28.5614ZM28.6089 31.4374L29.315 32.1456L29.3163 32.1443L28.6089 31.4374ZM27.6613 31.5194L28.238 30.7025L28.2355 30.7008L27.6613 31.5194ZM25.1694 29.7715L24.5951 30.5901H24.5951L25.1694 29.7715ZM22.7928 29.5785L23.178 30.5014H23.178L22.7928 29.5785ZM21.2609 31.3846L20.2763 31.2099V31.2099L21.2609 31.3846ZM20.7276 34.3902L19.743 34.2155L19.7428 34.2168L20.7276 34.3902ZM15.2066 34.3836L16.1934 34.2215L16.193 34.2193L15.2066 34.3836ZM14.7133 31.4214L15.6997 31.2572V31.2572L14.7133 31.4214ZM13.1754 29.5928L12.7929 30.5167L13.1754 29.5928ZM10.8146 29.7862L11.3882 30.6053H11.3882L10.8146 29.7862ZM8.33873 31.5202L7.76507 30.7011L7.76378 30.702L8.33873 31.5202ZM7.39182 31.4374L6.68447 32.1443L6.68474 32.1445L7.39182 31.4374ZM4.51783 28.5614L3.80871 29.2665L3.81048 29.2683L4.51783 28.5614ZM4.43947 27.6087L5.25277 28.1905L5.25293 28.1903L4.43947 27.6087ZM6.17021 25.1881L5.35676 24.6065L6.17021 25.1881ZM6.37625 22.7925L7.29995 22.4094L7.29995 22.4094L6.37625 22.7925ZM4.56353 21.2533L4.38894 22.238H4.38894L4.56353 21.2533ZM1.60984 20.7296L1.43442 21.7141L1.43525 21.7143L1.60984 20.7296ZM1.61797 15.2076L1.78169 16.1941L1.78221 16.194L1.61797 15.2076ZM4.55362 14.7188L4.71787 15.7052H4.71787L4.55362 14.7188ZM6.39156 13.1749L5.46835 12.7906L5.46835 12.7906L6.39156 13.1749ZM6.1996 10.8001L7.01921 10.2271H7.01921L6.1996 10.8001ZM4.47865 8.33809L5.29827 7.76517L5.29679 7.76307L4.47865 8.33809ZM4.56144 7.392L3.85436 6.68486H3.85436L4.56144 7.392ZM7.43469 4.519L6.72966 3.80982L6.72761 3.81186L7.43469 4.519ZM8.38751 4.44065L7.80631 5.25441L8.38751 4.44065ZM10.8429 6.19436L11.4241 5.3806L10.8429 6.19436ZM13.1907 6.4021L13.5711 7.32693L13.1907 6.4021ZM14.7212 4.58293L15.7081 4.74412V4.74412L14.7212 4.58293ZM15.2051 1.62013L16.192 1.78132L16.192 1.78124L15.2051 1.62013ZM20.7284 1.612L21.7134 1.43945L21.7133 1.43891L20.7284 1.612ZM21.2548 4.617L20.2698 4.78955V4.78955L21.2548 4.617ZM22.778 6.41518L22.395 7.33889V7.33889L22.778 6.41518ZM25.1537 6.20775L25.7373 7.01978L25.1537 6.20775ZM27.6073 4.44435L28.1909 5.25638L28.1922 5.25548L27.6073 4.44435ZM28.5616 4.52122L29.2685 3.8139L29.2677 3.81306L28.5616 4.52122ZM31.4363 7.39422L32.1444 6.68811L32.1432 6.6869L31.4363 7.39422ZM31.5191 8.34178L30.701 7.76676L30.7006 7.76738L31.5191 8.34178ZM29.748 10.8658L28.9294 10.2914V10.2914L29.748 10.8658ZM29.5554 13.197L30.4789 12.8134L29.5554 13.197ZM34.5419 14.2199L31.5286 13.7274L31.206 15.7012L34.2193 16.1937L34.5419 14.2199ZM36 15.9384C36.0017 15.0844 35.3829 14.3572 34.5416 14.2199L34.2195 16.1938C34.0937 16.1732 33.9997 16.064 34 15.9343L36 15.9384ZM36 20.0016V15.9363H34V20.0016H36ZM34.5614 21.7146C35.395 21.5684 36 20.8445 36 20.0016H34C34 19.8756 34.0905 19.7666 34.216 19.7446L34.5614 21.7146ZM31.5237 22.2478L34.5616 21.7145L34.2158 19.7447L31.1779 20.278L31.5237 22.2478ZM30.4912 23.1597C30.7009 22.6507 31.1005 22.3221 31.5237 22.2478L31.1779 20.278C29.965 20.4909 29.065 21.371 28.642 22.3979L30.4912 23.1597ZM30.5883 24.5467C30.3343 24.194 30.2792 23.6742 30.4912 23.1597L28.642 22.3979C28.2146 23.4352 28.2387 24.7065 28.9655 25.7156L30.5883 24.5467ZM32.3712 27.022L30.5883 24.5467L28.9655 25.7156L30.7484 28.1909L32.3712 27.022ZM32.191 29.2676C32.7912 28.6656 32.8709 27.715 32.3709 27.0216L30.7487 28.1914C30.6729 28.0864 30.6861 27.9443 30.7748 27.8553L32.191 29.2676ZM29.3163 32.1443L32.1903 29.2683L30.7756 27.8546L27.9016 30.7305L29.3163 32.1443ZM27.0845 32.3364C27.7802 32.8275 28.7201 32.7387 29.315 32.1456L27.9029 30.7292C27.9892 30.6432 28.1308 30.6268 28.238 30.7025L27.0845 32.3364ZM24.5951 30.5901L27.087 32.3381L28.2355 30.7008L25.7437 28.9528L24.5951 30.5901ZM23.178 30.5014C23.7005 30.2833 24.2298 30.3338 24.5951 30.5901L25.7437 28.9528C24.7221 28.2362 23.4486 28.2212 22.4076 28.6557L23.178 30.5014ZM22.2455 31.5593C22.3223 31.127 22.6592 30.7179 23.178 30.5014L22.4076 28.6557C21.3784 29.0853 20.4927 29.9906 20.2763 31.2099L22.2455 31.5593ZM21.7122 34.5649L22.2455 31.5593L20.2763 31.2099L19.743 34.2155L21.7122 34.5649ZM20.0003 36C20.8432 36 21.566 35.3951 21.7125 34.5637L19.7428 34.2168C19.765 34.0904 19.8743 34 20.0003 34V36ZM15.9347 36H20.0003V34H15.9347V36ZM14.2198 34.5456C14.358 35.387 15.0861 36 15.9347 36V34C16.0603 34 16.172 34.0912 16.1934 34.2215L14.2198 34.5456ZM13.7269 31.5857L14.2202 34.5478L16.193 34.2193L15.6997 31.2572L13.7269 31.5857ZM12.7929 30.5167C13.3165 30.7335 13.6538 31.147 13.7269 31.5857L15.6997 31.2572C15.4939 30.0216 14.6026 29.1013 13.5579 28.6688L12.7929 30.5167ZM11.3882 30.6053C11.7486 30.3529 12.2744 30.3021 12.7929 30.5167L13.5579 28.6688C12.524 28.2408 11.2568 28.2557 10.2409 28.9671L11.3882 30.6053ZM8.91238 32.3393L11.3882 30.6053L10.2409 28.9671L7.76507 30.7011L8.91238 32.3393ZM6.68474 32.1445C7.28044 32.7402 8.22097 32.8251 8.91367 32.3384L7.76378 30.702C7.86956 30.6276 8.01028 30.6417 8.09889 30.7303L6.68474 32.1445ZM3.81048 29.2683L6.68447 32.1443L8.09916 30.7305L5.22518 27.8546L3.81048 29.2683ZM3.62618 27.0268C3.13087 27.7192 3.21127 28.6657 3.80871 29.2665L5.22694 27.8563C5.31434 27.9442 5.32821 28.0851 5.25277 28.1905L3.62618 27.0268ZM5.35676 24.6065L3.62601 27.0271L5.25293 28.1903L6.98367 25.7697L5.35676 24.6065ZM5.45255 23.1757C5.6719 23.7045 5.6178 24.2414 5.35676 24.6065L6.98367 25.7697C7.71581 24.7457 7.73483 23.4579 7.29995 22.4094L5.45255 23.1757ZM4.38894 22.238C4.82615 22.3155 5.23608 22.6538 5.45256 23.1757L7.29995 22.4094C6.87005 21.373 5.96207 20.4857 4.73811 20.2687L4.38894 22.238ZM1.43525 21.7143L4.38894 22.238L4.73812 20.2687L1.78443 19.745L1.43525 21.7143ZM0 20.0016C0 20.845 0.605086 21.5663 1.43442 21.7141L1.78525 19.7451C1.90939 19.7672 2 19.8751 2 20.0016H0ZM0 15.9363V20.0016H2V15.9363H0ZM1.45424 14.2211C0.615389 14.3603 0 15.0866 0 15.9363H2C2 16.0647 1.90796 16.1731 1.78169 16.1941L1.45424 14.2211ZM4.38937 13.7323L1.45372 14.2211L1.78221 16.194L4.71787 15.7052L4.38937 13.7323ZM5.46835 12.7906C5.24876 13.3182 4.83109 13.6588 4.38937 13.7323L4.71787 15.7052C5.95666 15.4989 6.87964 14.6045 7.31477 13.5592L5.46835 12.7906ZM5.37998 11.373C5.63541 11.7384 5.68575 12.2684 5.46835 12.7906L7.31477 13.5592C7.74736 12.52 7.73279 11.248 7.01921 10.2271L5.37998 11.373ZM3.65904 8.91101L5.37998 11.373L7.01921 10.2271L5.29826 7.76517L3.65904 8.91101ZM3.85436 6.68486C3.25875 7.28042 3.17354 8.22024 3.66051 8.9131L5.29679 7.76307C5.37129 7.86906 5.35704 8.01062 5.26852 8.09914L3.85436 6.68486ZM6.72761 3.81186L3.85436 6.68486L5.26852 8.09914L8.14177 5.22614L6.72761 3.81186ZM8.96872 3.62689C8.27456 3.13111 7.33 3.21299 6.72966 3.80982L8.13972 5.22818C8.05238 5.31501 7.91058 5.32889 7.80631 5.25441L8.96872 3.62689ZM11.4241 5.3806L8.96872 3.62689L7.80631 5.25441L10.2617 7.00812L11.4241 5.3806ZM12.8103 5.47727C12.2972 5.68829 11.7793 5.6343 11.4241 5.3806L10.2617 7.00812C11.2699 7.72818 12.5346 7.75321 13.5711 7.32693L12.8103 5.47727ZM13.7343 4.42175C13.6639 4.85276 13.3296 5.26368 12.8103 5.47727L13.5711 7.32693C14.6128 6.89849 15.5065 5.97892 15.7081 4.74412L13.7343 4.42175ZM14.2182 1.45894L13.7343 4.42175L15.7081 4.74412L16.192 1.78132L14.2182 1.45894ZM15.9347 0C15.0826 0 14.3556 0.617336 14.2182 1.45903L16.192 1.78124C16.1714 1.90745 16.0623 2 15.9347 2V0ZM20.0003 0H15.9347V2H20.0003V0ZM21.7133 1.43891C21.5675 0.609209 20.8468 0 20.0003 0V2C19.8722 2 19.7651 1.90818 19.7435 1.78509L21.7133 1.43891ZM22.2398 4.44445L21.7134 1.43945L19.7434 1.78455L20.2698 4.78955L22.2398 4.44445ZM23.1611 5.49147C22.647 5.27824 22.315 4.87408 22.2398 4.44445L20.2698 4.78955C20.4831 6.00718 21.3643 6.91146 22.395 7.33889L23.1611 5.49147ZM24.5701 5.39572C24.2118 5.65326 23.6829 5.70785 23.1611 5.49147L22.395 7.33889C23.4381 7.77151 24.72 7.75096 25.7373 7.01978L24.5701 5.39572ZM27.0237 3.63232L24.5701 5.39572L25.7373 7.01978L28.1909 5.25638L27.0237 3.63232ZM29.2677 3.81306C28.6658 3.21302 27.716 3.13317 27.0225 3.63322L28.1922 5.25548C28.0871 5.33127 27.9444 5.31794 27.8556 5.22937L29.2677 3.81306ZM32.1432 6.6869L29.2685 3.8139L27.8547 5.22854L30.7294 8.10154L32.1432 6.6869ZM32.3373 8.9168C32.8245 8.22355 32.7384 7.28379 32.1444 6.68811L30.7282 8.10033C30.6413 8.01317 30.6262 7.87314 30.701 7.76677L32.3373 8.9168ZM30.5666 11.4402L32.3377 8.91618L30.7006 7.76738L28.9294 10.2914L30.5666 11.4402ZM30.4789 12.8134C30.2683 12.3065 30.3189 11.7931 30.5666 11.4402L28.9294 10.2914C28.2232 11.2979 28.2053 12.5537 28.6318 13.5805L30.4789 12.8134ZM31.5286 13.7274C31.0998 13.6574 30.6923 13.3273 30.4789 12.8134L28.6318 13.5805C29.0621 14.6165 29.9785 15.5006 31.206 15.7012L31.5286 13.7274ZM13 18C13 15.2386 15.2386 13 18 13V11C14.134 11 11 14.134 11 18H13ZM18 23C15.2386 23 13 20.7614 13 18H11C11 21.866 14.134 25 18 25V23ZM23 18C23 20.7614 20.7614 23 18 23V25C21.866 25 25 21.866 25 18H23ZM18 13C20.7614 13 23 15.2386 23 18H25C25 14.134 21.866 11 18 11V13Z" fill="white" mask="url(#path-1-inside-1_11_640)"/>
</svg>
