<svg width="12" height="12" viewBox="0 0 12 12" fill="none" xmlns="http://www.w3.org/2000/svg">
<mask id="mask0_11_1686" style="mask-type:alpha" maskUnits="userSpaceOnUse" x="0" y="0" width="12" height="12">
<rect width="12" height="12" fill="#7B7B7B"/>
</mask>
<g mask="url(#mask0_11_1686)">
<path fill-rule="evenodd" clip-rule="evenodd" d="M10.2426 10.2426C9.85205 10.6332 9.21888 10.6332 8.82836 10.2426L5.99993 7.41421L3.1715 10.2426C2.78098 10.6332 2.14781 10.6332 1.75729 10.2426C1.36676 9.85211 1.36676 9.21895 1.75729 8.82842L4.58571 6L1.75729 3.17157C1.36677 2.78105 1.36677 2.14788 1.75729 1.75736C2.14781 1.36683 2.78098 1.36683 3.1715 1.75736L5.99993 4.58578L8.82835 1.75736C9.21888 1.36683 9.85204 1.36683 10.2426 1.75736C10.6331 2.14788 10.6331 2.78105 10.2426 3.17157L7.41414 6L10.2426 8.82843C10.6331 9.21895 10.6331 9.85212 10.2426 10.2426Z" fill="#A2A2A2"/>
</g>
</svg>
