<svg width="12" height="12" viewBox="0 0 12 12" fill="none" xmlns="http://www.w3.org/2000/svg">
<mask id="mask0_11_1334" style="mask-type:alpha" maskUnits="userSpaceOnUse" x="0" y="0" width="12" height="12">
<rect width="12" height="12" fill="#848484"/>
</mask>
<g mask="url(#mask0_11_1334)">
<path fill-rule="evenodd" clip-rule="evenodd" d="M10.2426 10.2426C9.85212 10.6332 9.21896 10.6332 8.82843 10.2426L6 7.41421L3.17158 10.2426C2.78105 10.6332 2.14789 10.6332 1.75736 10.2426C1.36684 9.85211 1.36684 9.21895 1.75736 8.82842L4.58579 6L1.75737 3.17157C1.36684 2.78105 1.36684 2.14788 1.75737 1.75736C2.14789 1.36683 2.78105 1.36683 3.17158 1.75736L6 4.58578L8.82843 1.75736C9.21895 1.36683 9.85212 1.36683 10.2426 1.75736C10.6332 2.14788 10.6332 2.78105 10.2426 3.17157L7.41422 6L10.2426 8.82843C10.6332 9.21895 10.6332 9.85212 10.2426 10.2426Z" fill="#848484"/>
</g>
</svg>
