<svg width="36" height="36" viewBox="0 0 36 36" fill="none" xmlns="http://www.w3.org/2000/svg">
<mask id="mask0_11_1465" style="mask-type:alpha" maskUnits="userSpaceOnUse" x="0" y="0" width="36" height="36">
<path d="M0 0H36V36H0V0Z" fill="#A1A1A1"/>
</mask>
<g mask="url(#mask0_11_1465)">
<path fill-rule="evenodd" clip-rule="evenodd" d="M14.1456 2.14542L25.48 10.3333V21.9445L12.56 9.02447V2.95603C12.56 2.14021 13.4843 1.66769 14.1456 2.14542ZM9.7183 13.2538L9.94829 13.4838L10.1643 14.5139C8.57738 15.0618 7.44001 16.5445 7.44001 18.2877C7.44001 20.0529 8.60634 21.5511 10.2247 22.0819L9.94094 23.3929C7.70659 22.7295 6.08002 20.6948 6.08002 18.2877C6.08002 15.9613 7.59935 13.9828 9.7183 13.2538ZM6.70113 10.2367L7.68759 11.2231C5.11267 12.5685 3.36 15.2275 3.36 18.2877C3.36 21.9782 5.90885 25.085 9.37482 26.0084L9.09206 27.3148C5.01036 26.2624 2 22.6197 2 18.2877C2 14.8569 3.88809 11.8585 6.70113 10.2367ZM12.56 16.0955L24.6195 28.1551L14.0536 34.1522C13.387 34.5306 12.56 34.0491 12.56 33.2826V16.0955ZM31.2022 27.6667H34C34.5523 27.6667 35 27.2189 35 26.6667V11.3333C35 10.781 34.5523 10.3333 34 10.3333H26.84V23.3045L31.2022 27.6667Z" fill="#A1A1A1"/>
<rect x="4.76777" y="3" width="41" height="2.5" rx="1.25" transform="rotate(45 4.76777 3)" fill="#A1A1A1"/>
</g>
</svg>
