<svg width="560" height="92" viewBox="0 0 560 92" fill="none" xmlns="http://www.w3.org/2000/svg">
<path fill-rule="evenodd" clip-rule="evenodd" d="M0 0H560V92H0V0ZM10 15C10 12.2386 12.2386 10 15 10H78C80.7614 10 83 12.2386 83 15V78C83 80.7614 80.7614 83 78 83H15C12.2386 83 10 80.7614 10 78V15ZM547.507 22.5104C548.06 23.0637 548.957 23.0637 549.51 22.5104C550.064 21.9572 550.064 21.0602 549.51 20.5069L545.503 16.5L549.51 12.4931C550.064 11.9398 550.064 11.0428 549.51 10.4896C548.957 9.93635 548.06 9.93635 547.507 10.4896L543.5 14.4965L539.493 10.4896C538.94 9.93636 538.043 9.93636 537.49 10.4896C536.936 11.0428 536.936 11.9398 537.49 12.4931L541.497 16.5L537.49 20.5069C536.936 21.0602 536.936 21.9572 537.49 22.5104C538.043 23.0637 538.94 23.0637 539.493 22.5104L543.5 18.5035L547.507 22.5104Z" fill="white"/>
<path fill-rule="evenodd" clip-rule="evenodd" d="M38.0835 28.0975C37.471 28.2278 37.0331 28.7687 37.0331 29.3949V56.6871C35.8784 56.0597 34.555 55.7033 33.1484 55.7033C28.6481 55.7033 25 59.3514 25 63.8516C25 68.3518 28.6481 72 33.1484 72C37.6486 72 41.2967 68.3518 41.2967 63.8516C41.2967 63.6885 41.2919 63.5264 41.2825 63.3656C41.2919 63.3158 41.2968 63.257 41.2968 63.1884V40.1061C41.2968 39.4778 41.7376 38.9357 42.3527 38.8075L62.4394 34.6228C63.2631 34.4512 64.0364 35.08 64.0364 35.9214V51.623C62.8595 50.9631 61.5022 50.5868 60.0569 50.5868C55.5567 50.5868 51.9086 54.235 51.9086 58.7352C51.9086 63.2354 55.5567 66.8836 60.0569 66.8836C64.3729 66.8836 67.9052 63.5279 68.1871 59.2833C68.1991 59.2449 68.2053 59.1895 68.2053 59.1142V23.327C68.2053 22.4833 67.428 21.854 66.6028 22.0295L38.0835 28.0975Z" fill="white"/>
</svg>
