<svg width="36" height="36" viewBox="0 0 36 36" fill="none" xmlns="http://www.w3.org/2000/svg">
<path fill-rule="evenodd" clip-rule="evenodd" d="M17.2165 1.20338C17.7013 0.932208 18.2987 0.932208 18.7835 1.20338L32.2165 8.71657C32.7013 8.98774 33 9.48888 33 10.0312V25.0576C33 25.5999 32.7013 26.1011 32.2165 26.3722L18.7835 33.8854C18.2987 34.1566 17.7013 34.1566 17.2165 33.8854L3.78349 26.3722C3.29866 26.1011 3 25.5999 3 25.0576V10.0312C3 9.48887 3.29867 8.98774 3.78349 8.71657L17.2165 1.20338ZM17.3651 2.90872C17.7853 2.67371 18.303 2.67371 18.7232 2.90872L30.7502 9.63555C31.1704 9.87057 31.4292 10.3049 31.4292 10.7749V24.2286C31.4292 24.6986 31.1704 25.1329 30.7502 25.3679L18.7232 32.0948C18.303 32.3298 17.7853 32.3298 17.3651 32.0948L5.33804 25.3679C4.91785 25.1329 4.65901 24.6986 4.65901 24.2286V10.7749C4.65901 10.3049 4.91786 9.87057 5.33804 9.63555L17.3651 2.90872ZM17.0178 5.99064C17.1871 5.70579 17.5626 5.60779 17.8567 5.77174L27.934 11.3909C28.2281 11.5548 28.3292 11.9186 28.16 12.2035C27.9908 12.4883 27.6152 12.5863 27.3212 12.4224L17.2438 6.80325C16.9498 6.6393 16.8486 6.27548 17.0178 5.99064ZM17.3261 28.3113C17.0351 28.4802 16.9404 28.8456 17.1148 29.1276C17.2891 29.4095 17.6663 29.5012 17.9574 29.3323L27.9324 23.5444C28.2235 23.3755 28.3181 23.01 28.1438 22.7281C27.9694 22.4461 27.5922 22.3545 27.3011 22.5234L17.3261 28.3113ZM8.64258 11.3384C8.98183 11.3384 9.25686 11.6048 9.25686 11.9335V23.1976C9.25686 23.5262 8.98183 23.7927 8.64258 23.7927C8.30332 23.7927 8.02829 23.5262 8.02829 23.1976V11.9335C8.02829 11.6048 8.30332 11.3384 8.64258 11.3384Z" fill="#A2A2A2"/>
<path d="M18.7835 1.20338L19.0764 0.679718L19.0764 0.679717L18.7835 1.20338ZM17.2165 1.20338L16.9236 0.679717L16.9236 0.679717L17.2165 1.20338ZM32.2165 8.71657L32.5094 8.19291L32.5094 8.19291L32.2165 8.71657ZM32.2165 26.3722L32.5094 26.8959L32.5094 26.8959L32.2165 26.3722ZM18.7835 33.8854L19.0764 34.4091L19.0764 34.4091L18.7835 33.8854ZM17.2165 33.8854L16.9236 34.4091L16.9236 34.4091L17.2165 33.8854ZM3.78349 26.3722L3.49061 26.8959L3.49061 26.8959L3.78349 26.3722ZM3.78349 8.71657L4.07638 9.24023L4.07638 9.24023L3.78349 8.71657ZM18.7232 2.90872L19.016 2.38506L19.016 2.38506L18.7232 2.90872ZM17.3651 2.90872L17.0722 2.38506L17.0722 2.38506L17.3651 2.90872ZM30.7502 9.63555L31.0431 9.1119L31.0431 9.1119L30.7502 9.63555ZM30.7502 25.3679L31.0431 25.8916L31.0431 25.8916L30.7502 25.3679ZM18.7232 32.0948L18.4303 31.5711L18.4303 31.5711L18.7232 32.0948ZM17.3651 32.0948L17.658 31.5711L17.658 31.5711L17.3651 32.0948ZM5.33804 25.3679L5.04515 25.8916L5.04515 25.8916L5.33804 25.3679ZM5.33804 9.63555L5.04515 9.1119L5.04515 9.1119L5.33804 9.63555ZM17.8567 5.77174L18.1489 5.2477L18.1489 5.2477L17.8567 5.77174ZM17.0178 5.99064L16.502 5.68416L16.502 5.68416L17.0178 5.99064ZM27.934 11.3909L27.6418 11.9149L27.6418 11.9149L27.934 11.3909ZM28.16 12.2035L28.6758 12.51L28.6758 12.5099L28.16 12.2035ZM27.3212 12.4224L27.029 12.9464L27.029 12.9464L27.3212 12.4224ZM17.2438 6.80325L17.536 6.27921L17.536 6.27921L17.2438 6.80325ZM17.1148 29.1276L17.6251 28.8121L17.6251 28.8121L17.1148 29.1276ZM17.3261 28.3113L17.6272 28.8303L17.6272 28.8303L17.3261 28.3113ZM17.9574 29.3323L18.2585 29.8513L18.2585 29.8513L17.9574 29.3323ZM27.9324 23.5444L28.2335 24.0634L28.2335 24.0634L27.9324 23.5444ZM27.3011 22.5234L27.6023 23.0423L27.6023 23.0423L27.3011 22.5234ZM19.0764 0.679717C18.4096 0.306761 17.5904 0.306761 16.9236 0.679717L17.5094 1.72703C17.8122 1.55766 18.1878 1.55766 18.4906 1.72703L19.0764 0.679717ZM32.5094 8.19291L19.0764 0.679718L18.4906 1.72703L31.9236 9.24023L32.5094 8.19291ZM33.6 10.0312C33.6 9.2651 33.1781 8.56694 32.5094 8.19291L31.9236 9.24023C32.2245 9.40853 32.4 9.71265 32.4 10.0312H33.6ZM33.6 25.0576V10.0312H32.4V25.0576H33.6ZM32.5094 26.8959C33.1781 26.5219 33.6 25.8237 33.6 25.0576H32.4C32.4 25.3762 32.2245 25.6803 31.9236 25.8486L32.5094 26.8959ZM19.0764 34.4091L32.5094 26.8959L31.9236 25.8486L18.4906 33.3618L19.0764 34.4091ZM16.9236 34.4091C17.5904 34.782 18.4096 34.782 19.0764 34.4091L18.4906 33.3618C18.1878 33.5312 17.8122 33.5312 17.5094 33.3618L16.9236 34.4091ZM3.49061 26.8959L16.9236 34.4091L17.5094 33.3618L4.07638 25.8486L3.49061 26.8959ZM2.4 25.0576C2.4 25.8237 2.82187 26.5219 3.49061 26.8959L4.07638 25.8486C3.77546 25.6803 3.6 25.3762 3.6 25.0576H2.4ZM2.4 10.0312V25.0576H3.6V10.0312H2.4ZM3.49061 8.19291C2.82187 8.56694 2.4 9.2651 2.4 10.0312H3.6C3.6 9.71265 3.77546 9.40853 4.07638 9.24023L3.49061 8.19291ZM16.9236 0.679717L3.49061 8.19291L4.07638 9.24023L17.5094 1.72703L16.9236 0.679717ZM19.016 2.38506C18.4139 2.04826 17.6744 2.04826 17.0722 2.38506L17.658 3.43238C17.8962 3.29916 18.1921 3.29916 18.4303 3.43238L19.016 2.38506ZM31.0431 9.1119L19.016 2.38506L18.4303 3.43238L30.4573 10.1592L31.0431 9.1119ZM32.0292 10.7749C32.0292 10.0811 31.6472 9.44977 31.0431 9.1119L30.4573 10.1592C30.6936 10.2914 30.8292 10.5287 30.8292 10.7749H32.0292ZM32.0292 24.2286V10.7749H30.8292V24.2286H32.0292ZM31.0431 25.8916C31.6472 25.5537 32.0292 24.9224 32.0292 24.2286H30.8292C30.8292 24.4748 30.6936 24.7121 30.4573 24.8443L31.0431 25.8916ZM19.016 32.6184L31.0431 25.8916L30.4573 24.8443L18.4303 31.5711L19.016 32.6184ZM17.0722 32.6184C17.6744 32.9552 18.4139 32.9552 19.016 32.6184L18.4303 31.5711C18.1921 31.7043 17.8962 31.7043 17.658 31.5711L17.0722 32.6184ZM5.04515 25.8916L17.0722 32.6184L17.658 31.5711L5.63092 24.8443L5.04515 25.8916ZM4.05901 24.2286C4.05901 24.9224 4.44106 25.5537 5.04515 25.8916L5.63092 24.8443C5.39465 24.7121 5.25901 24.4748 5.25901 24.2286H4.05901ZM4.05901 10.7749V24.2286H5.25901V10.7749H4.05901ZM5.04515 9.1119C4.44106 9.44977 4.05901 10.0811 4.05901 10.7749H5.25901C5.25901 10.5287 5.39465 10.2914 5.63092 10.1592L5.04515 9.1119ZM17.0722 2.38506L5.04515 9.1119L5.63092 10.1592L17.658 3.43238L17.0722 2.38506ZM18.1489 5.2477C17.5786 4.92973 16.8417 5.11254 16.502 5.68416L17.5337 6.29711C17.5337 6.29699 17.5337 6.2971 17.5335 6.29725C17.5334 6.29737 17.5335 6.29724 17.534 6.29691C17.535 6.29615 17.5376 6.29458 17.542 6.29345C17.5511 6.29105 17.5588 6.2926 17.5645 6.29578L18.1489 5.2477ZM28.2262 10.8668L18.1489 5.2477L17.5645 6.29578L27.6418 11.9149L28.2262 10.8668ZM28.6758 12.5099C29.0224 11.9266 28.8071 11.1907 28.2262 10.8668L27.6418 11.9149C27.6451 11.9167 27.6454 11.9176 27.6446 11.9166C27.644 11.9159 27.6432 11.9146 27.6427 11.9126C27.6421 11.9106 27.6417 11.9076 27.6422 11.904C27.6424 11.9022 27.6428 11.9005 27.6433 11.899C27.6438 11.8976 27.6442 11.8969 27.6442 11.897L28.6758 12.5099ZM27.029 12.9464C27.5992 13.2644 28.3362 13.0816 28.6758 12.51L27.6442 11.897C27.6441 11.8971 27.6442 11.897 27.6443 11.8969C27.6444 11.8967 27.6443 11.8969 27.6439 11.8972C27.6428 11.898 27.6402 11.8995 27.6359 11.9007C27.6267 11.9031 27.6191 11.9015 27.6134 11.8983L27.029 12.9464ZM16.9516 7.32729L27.029 12.9464L27.6134 11.8983L17.536 6.27921L16.9516 7.32729ZM16.502 5.68416C16.1554 6.26748 16.3708 7.00341 16.9516 7.32729L17.536 6.27921C17.5327 6.27737 17.5325 6.27651 17.5333 6.27753C17.5338 6.27825 17.5346 6.27955 17.5352 6.28154C17.5357 6.28355 17.5361 6.28649 17.5356 6.29013C17.5354 6.29194 17.535 6.29363 17.5345 6.29506C17.534 6.29652 17.5336 6.29723 17.5337 6.29711L16.502 5.68416ZM17.6251 28.8121C17.625 28.8119 17.6254 28.8126 17.6259 28.814C17.6264 28.8153 17.6268 28.817 17.6271 28.8188C17.6276 28.8224 17.6273 28.8254 17.6268 28.8274C17.6262 28.8295 17.6254 28.8309 17.6248 28.8317C17.6239 28.8329 17.6241 28.8321 17.6272 28.8303L17.025 27.7923C16.4493 28.1264 16.2477 28.8662 16.6044 29.4431L17.6251 28.8121ZM17.6563 28.8134C17.6508 28.8165 17.6433 28.8183 17.634 28.816C17.6296 28.8149 17.6268 28.8134 17.6257 28.8125C17.6252 28.8122 17.625 28.812 17.6251 28.8121C17.6252 28.8122 17.6252 28.8122 17.6251 28.8121L16.6044 29.4431C16.9538 30.0083 17.6936 30.1791 18.2585 29.8513L17.6563 28.8134ZM27.6313 23.0254L17.6563 28.8134L18.2585 29.8513L28.2335 24.0634L27.6313 23.0254ZM27.6334 23.0436C27.6335 23.0438 27.6331 23.0431 27.6326 23.0417C27.6321 23.0403 27.6317 23.0387 27.6314 23.0369C27.6309 23.0333 27.6312 23.0303 27.6318 23.0283C27.6323 23.0262 27.6331 23.0248 27.6337 23.024C27.6346 23.0228 27.6345 23.0236 27.6313 23.0254L28.2335 24.0634C28.8092 23.7293 29.0108 22.9895 28.6541 22.4126L27.6334 23.0436ZM27.6023 23.0423C27.6077 23.0392 27.6152 23.0374 27.6246 23.0397C27.629 23.0408 27.6317 23.0423 27.6328 23.0431C27.6334 23.0435 27.6335 23.0437 27.6334 23.0436C27.6333 23.0435 27.6333 23.0435 27.6334 23.0436L28.6541 22.4126C28.3047 21.8474 27.565 21.6766 27 22.0044L27.6023 23.0423ZM17.6272 28.8303L27.6023 23.0423L27 22.0044L17.025 27.7923L17.6272 28.8303ZM9.85686 11.9335C9.85686 11.2556 9.29511 10.7384 8.64258 10.7384V11.9384C8.64835 11.9384 8.65194 11.9394 8.65419 11.9404C8.65679 11.9414 8.65854 11.9427 8.65946 11.9436C8.66037 11.9445 8.65971 11.9442 8.65871 11.9419C8.6575 11.9392 8.65686 11.9358 8.65686 11.9335H9.85686ZM9.85686 23.1976V11.9335H8.65686V23.1976H9.85686ZM8.64258 24.3927C9.29511 24.3927 9.85686 23.8754 9.85686 23.1976H8.65686C8.65686 23.1952 8.6575 23.1919 8.65871 23.1891C8.65971 23.1868 8.66037 23.1865 8.65946 23.1874C8.65854 23.1883 8.65679 23.1896 8.65419 23.1907C8.65194 23.1916 8.64835 23.1927 8.64258 23.1927V24.3927ZM7.42829 23.1976C7.42829 23.8754 7.99004 24.3927 8.64258 24.3927V23.1927C8.6368 23.1927 8.63321 23.1916 8.63096 23.1907C8.62836 23.1896 8.62661 23.1883 8.62569 23.1874C8.62478 23.1865 8.62544 23.1868 8.62644 23.1891C8.62765 23.1919 8.62829 23.1952 8.62829 23.1976H7.42829ZM7.42829 11.9335V23.1976H8.62829V11.9335H7.42829ZM8.64258 10.7384C7.99004 10.7384 7.42829 11.2556 7.42829 11.9335H8.62829C8.62829 11.9358 8.62765 11.9392 8.62644 11.9419C8.62544 11.9442 8.62478 11.9445 8.62569 11.9436C8.62661 11.9427 8.62836 11.9414 8.63096 11.9404C8.63321 11.9394 8.63681 11.9384 8.64258 11.9384V10.7384Z" fill="#A2A2A2"/>
</svg>
