<svg width="36" height="36" viewBox="0 0 36 36" fill="none" xmlns="http://www.w3.org/2000/svg">
<mask id="mask0_44_572" style="mask-type:alpha" maskUnits="userSpaceOnUse" x="0" y="0" width="36" height="36">
<rect width="36" height="36" fill="#A1A1A1"/>
</mask>
<g mask="url(#mask0_44_572)">
<path d="M27 19.7459V18.0532H25.8686V19.7459C25.8686 23.7965 22.5158 27.0806 18.4644 27.0806H18.4611C14.4101 27.0806 11.1264 23.796 11.1264 19.7459V18.0532H10V19.7459C10 24.01 13.1615 27.5021 17.2631 28.0906V31.2279H12.7563C11.7835 31.2279 10.9969 32.0161 10.9969 32.988C10.9969 33.9599 11.7835 34.7477 12.7563 34.7477H24.2416C25.2135 34.7477 26.0009 33.9599 26.0009 32.988C26.0009 32.0161 25.2136 31.2279 24.2416 31.2279H19.5213V28.105C23.6907 27.5789 27 24.0595 27 19.7459Z" fill="#A1A1A1"/>
<path d="M18.4626 1C15.0333 1 12.2543 3.78065 12.2543 7.20787V16.9235H24.7421V7.20787C24.7421 3.78053 21.8921 1 18.4626 1Z" fill="#A1A1A1"/>
<path d="M18.4626 25.8823C21.892 25.8823 24.7421 23.1016 24.7421 19.6744V18.0533H12.2543V19.6744C12.2543 23.1021 15.0328 25.8823 18.4626 25.8823Z" fill="#A1A1A1"/>
</g>
</svg>
