<svg width="560" height="125" viewBox="0 0 560 125" fill="none" xmlns="http://www.w3.org/2000/svg">
<path fill-rule="evenodd" clip-rule="evenodd" d="M0 8C0 3.58172 3.58172 0 8 0H552C556.418 0 560 3.58172 560 8V117C560 121.418 556.418 125 552 125H7.99998C3.5817 125 0 121.418 0 117V8ZM10 32C10 29.2386 12.2386 27 15 27H155C157.761 27 160 29.2386 160 32V56C160 58.7614 157.761 61 155 61H15C12.2386 61 10 58.7614 10 56V32ZM15 82C12.2386 82 10 84.2386 10 87V111C10 113.761 12.2386 116 15 116H155C157.761 116 160 113.761 160 111V87C160 84.2386 157.761 82 155 82H15Z" fill="#141414"/>
</svg>
