<svg width="36" height="36" viewBox="0 0 36 36" fill="none" xmlns="http://www.w3.org/2000/svg">
<path fill-rule="evenodd" clip-rule="evenodd" d="M3 1C1.89543 1 1 1.89543 1 3V33C1 34.1046 1.89543 35 3 35H33C34.1046 35 35 34.1046 35 33V3C35 1.89543 34.1046 1 33 1H3ZM32 4H4V28H32V4Z" fill="#A1A1A1"/>
<mask id="mask0_13_55" style="mask-type:alpha" maskUnits="userSpaceOnUse" x="10" y="8" width="17" height="17">
<rect x="10" y="8" width="16.0556" height="16.0556" fill="white"/>
</mask>
<g mask="url(#mask0_13_55)">
<path fill-rule="evenodd" clip-rule="evenodd" d="M23.7043 21.7043C23.1818 22.2268 22.3346 22.2268 21.8121 21.7043L18.0278 17.92L14.2435 21.7043C13.721 22.2268 12.8738 22.2268 12.3513 21.7043C11.8288 21.1818 11.8288 20.3346 12.3513 19.8121L16.1356 16.0278L12.3513 12.2435C11.8288 11.721 11.8288 10.8738 12.3513 10.3513C12.8738 9.82879 13.721 9.82879 14.2435 10.3513L18.0278 14.1356L21.8121 10.3513C22.3346 9.82878 23.1818 9.82878 23.7043 10.3513C24.2268 10.8738 24.2268 11.7209 23.7043 12.2435L19.92 16.0278L23.7043 19.8121C24.2268 20.3346 24.2268 21.1818 23.7043 21.7043Z" fill="#A1A1A1"/>
</g>
</svg>
