<svg width="36" height="36" viewBox="0 0 36 36" fill="none" xmlns="http://www.w3.org/2000/svg">
<mask id="mask0_11_1450" style="mask-type:alpha" maskUnits="userSpaceOnUse" x="0" y="0" width="36" height="36">
<rect width="36" height="36" fill="#A1A1A1"/>
</mask>
<g mask="url(#mask0_11_1450)">
<path d="M26.84 10.3333H34C34.5523 10.3333 35 10.781 35 11.3333V26.6667C35 27.2189 34.5523 27.6667 34 27.6667H26.84V10.3333Z" fill="#A1A1A1"/>
<path d="M25.48 10.3333L14.1456 2.14541C13.4843 1.66768 12.56 2.14021 12.56 2.95603V33.2826C12.56 34.0491 13.387 34.5306 14.0536 34.1522L25.48 27.6667V10.3333Z" fill="#A1A1A1"/>
<path fill-rule="evenodd" clip-rule="evenodd" d="M9.06435 9.26782C4.99675 10.3295 2 13.9655 2 18.2877C2 22.6197 5.01036 26.2624 9.09206 27.3148L9.37482 26.0084C5.90885 25.085 3.36 21.9782 3.36 18.2877C3.36 14.6101 5.89119 11.512 9.33878 10.5767L9.06435 9.26782ZM19.04 21.3988C19.4521 20.4425 19.68 19.3912 19.68 18.2877C19.68 17.1842 19.4521 16.1329 19.04 15.1766V12.5636C20.2935 14.1442 21.04 16.1305 21.04 18.2877C21.04 20.4449 20.2935 22.4312 19.04 24.0118V21.3988ZM9.88845 13.1984C7.68116 13.8779 6.08002 15.8995 6.08002 18.2877C6.08002 20.6948 7.70659 22.7295 9.94094 23.3929L10.2247 22.0819C8.60634 21.5511 7.44001 20.0529 7.44001 18.2877C7.44001 16.5445 8.57738 15.0618 10.1643 14.5139L9.88845 13.1984Z" fill="#A1A1A1"/>
</g>
</svg>
