<svg width="12" height="12" viewBox="0 0 12 12" fill="none" xmlns="http://www.w3.org/2000/svg">
<mask id="mask0_11_1675" style="mask-type:alpha" maskUnits="userSpaceOnUse" x="-1" y="-1" width="14" height="14">
<rect width="12" height="12" fill="#3B3B3B" stroke="#7B7B7B" stroke-width="0.3"/>
</mask>
<g mask="url(#mask0_11_1675)">
<path fill-rule="evenodd" clip-rule="evenodd" d="M4.3088 6.32942C4.63144 6.00678 4.67892 5.50981 4.54309 5.07421C4.18156 3.91476 4.45998 2.59878 5.37835 1.68041C6.69627 0.362495 8.83303 0.362495 10.1509 1.68041C11.4689 2.99833 11.4689 5.13509 10.1509 6.45301C9.23258 7.37137 7.91661 7.64979 6.75716 7.28827C6.32156 7.15245 5.8246 7.19992 5.50196 7.52256L2.99206 10.0325L2.39548 10.629C2.06601 10.9585 1.53181 10.9585 1.20234 10.629V10.629V10.629C0.872856 10.2996 0.872856 9.76536 1.20233 9.43589L1.79891 8.83931L4.3088 6.32942ZM5.97491 5.85643C5.97491 5.85643 5.9749 5.85643 5.9749 5.85642C4.98649 4.86798 4.9865 3.26543 5.97493 2.277C6.96336 1.28856 8.56594 1.28856 9.55437 2.277C10.5428 3.26544 10.5428 4.86801 9.55437 5.85645C8.56594 6.84488 6.96339 6.84489 5.97495 5.85647C5.97494 5.85646 5.97494 5.85646 5.97494 5.85645V5.85645C5.97493 5.85644 5.97493 5.85644 5.97491 5.85643V5.85643Z" fill="#A2A2A2"/>
<path d="M5.97495 5.85647L5.86888 5.96254L5.97495 5.85647ZM5.9749 5.85642L5.86883 5.96249L5.9749 5.85642ZM5.27228 1.57435C4.31295 2.53368 4.02242 3.90828 4.39989 5.11886L4.68629 5.02956C4.34071 3.92124 4.60702 2.66388 5.48442 1.78648L5.27228 1.57435ZM10.257 1.57435C8.88052 0.197851 6.64878 0.197851 5.27228 1.57435L5.48442 1.78648C6.74375 0.52714 8.78554 0.52714 10.0449 1.78648L10.257 1.57435ZM10.257 6.55907C11.6335 5.18258 11.6335 2.95084 10.257 1.57435L10.0449 1.78648C11.3042 3.04582 11.3042 5.08761 10.0449 6.34694L10.257 6.55907ZM6.71251 7.43147C7.92309 7.80894 9.29768 7.51841 10.257 6.55907L10.0449 6.34694C9.16749 7.22434 7.91013 7.49065 6.80181 7.14507L6.71251 7.43147ZM5.39589 7.4165L2.88599 9.92639L3.09813 10.1385L5.60802 7.62863L5.39589 7.4165ZM2.88599 9.92639L2.28942 10.523L2.50155 10.7351L3.09813 10.1385L2.88599 9.92639ZM1.3084 9.54195L1.90498 8.94538L1.69284 8.73324L1.09627 9.32982L1.3084 9.54195ZM1.90498 8.94538L4.41487 6.43549L4.20273 6.22335L1.69284 8.73324L1.90498 8.94538ZM5.86886 2.17093C4.82185 3.21794 4.82184 4.91547 5.86883 5.96249L6.08097 5.75036C5.15113 4.8205 5.15114 3.31292 6.08099 2.38307L5.86886 2.17093ZM9.66044 2.17093C8.61342 1.12392 6.91588 1.12392 5.86886 2.17093L6.08099 2.38307C7.01085 1.45321 8.51845 1.45321 9.44831 2.38307L9.66044 2.17093ZM9.66044 5.96251C10.7075 4.9155 10.7075 3.21795 9.66044 2.17093L9.44831 2.38307C10.3782 3.31293 10.3782 4.82052 9.44831 5.75038L9.66044 5.96251ZM5.86888 5.96254C6.9159 7.00953 8.61343 7.00952 9.66044 5.96251L9.44831 5.75038C8.51846 6.68023 7.01087 6.68024 6.08101 5.7504L5.86888 5.96254ZM6.08101 5.7504C6.09733 5.76672 6.10981 5.78673 6.11724 5.80902L5.83264 5.90389C5.84007 5.92618 5.85256 5.94621 5.86888 5.96254L6.08101 5.7504ZM1.3084 10.523C1.0375 10.2521 1.0375 9.81285 1.3084 9.54195L1.09627 9.32982C0.708211 9.71788 0.708211 10.347 1.09627 10.7351L1.3084 10.523ZM6.11724 5.80902C6.10231 5.76422 6.06715 5.72906 6.02235 5.71413L5.92748 5.99873C5.8827 5.98381 5.84756 5.94867 5.83264 5.90389L6.11724 5.80902ZM6.80181 7.14507C6.33252 6.99874 5.7706 7.04179 5.39589 7.4165L5.60802 7.62863C5.8786 7.35806 6.3106 7.30615 6.71251 7.43147L6.80181 7.14507ZM5.86883 5.96249C5.88471 5.97837 5.9046 5.99111 5.92748 5.99873L6.02235 5.71413C6.04521 5.72175 6.0651 5.73449 6.08097 5.75036L5.86883 5.96249ZM2.28942 10.523C2.01852 10.7939 1.5793 10.7939 1.3084 10.523L1.09627 10.7351C1.48433 11.1232 2.11349 11.1232 2.50155 10.7351L2.28942 10.523ZM4.39989 5.11886C4.52521 5.52077 4.47331 5.95278 4.20273 6.22335L4.41487 6.43549C4.78958 6.06078 4.83262 5.49885 4.68629 5.02956L4.39989 5.11886Z" fill="#A2A2A2"/>
</g>
</svg>
