<svg width="36" height="36" viewBox="0 0 36 36" fill="none" xmlns="http://www.w3.org/2000/svg">
<path fill-rule="evenodd" clip-rule="evenodd" d="M12 27C18.6274 27 24 21.6274 24 15C24 11.5189 22.5178 8.38403 20.15 6.19206C25.7514 7.20528 30 12.1065 30 18C30 24.6274 24.6274 30 18 30C14.8537 30 11.9902 28.7891 9.8501 26.808C10.5476 26.9341 11.2661 27 12 27Z" fill="#A2A2A2"/>
<path d="M9 0L10.0804 2.91964L13 4L10.0804 5.08036L9 8L7.91964 5.08036L5 4L7.91964 2.91964L9 0Z" fill="#A2A2A2"/>
<path d="M11.5 14L12.1752 15.8248L14 16.5L12.1752 17.1752L11.5 19L10.8248 17.1752L9 16.5L10.8248 15.8248L11.5 14Z" fill="#A2A2A2"/>
<path d="M3 23L3.81027 25.1897L6 26L3.81027 26.8103L3 29L2.18973 26.8103L0 26L2.18973 25.1897L3 23Z" fill="#A2A2A2"/>
<path d="M34 6L34.5402 7.45982L36 8L34.5402 8.54018L34 10L33.4598 8.54018L32 8L33.4598 7.45982L34 6Z" fill="#A2A2A2"/>
<path d="M28.5 31L29.1752 32.8248L31 33.5L29.1752 34.1752L28.5 36L27.8248 34.1752L26 33.5L27.8248 32.8248L28.5 31Z" fill="#A2A2A2"/>
</svg>
