<svg width="330" height="170" viewBox="0 0 330 170" fill="none" xmlns="http://www.w3.org/2000/svg">
<path fill-rule="evenodd" clip-rule="evenodd" d="M0 0H330V170H0V0ZM319.432 20.5104C319.986 21.0637 320.883 21.0637 321.436 20.5104C321.989 19.9572 321.989 19.0602 321.436 18.5069L317.429 14.5L321.436 10.4931C321.989 9.93982 321.989 9.04284 321.436 8.48959C320.883 7.93635 319.986 7.93635 319.432 8.48959L315.425 12.4965L311.418 8.4896C310.865 7.93635 309.968 7.93635 309.415 8.48959C308.862 9.04284 308.862 9.93982 309.415 10.4931L313.422 14.5L309.415 18.5069C308.862 19.0602 308.862 19.9572 309.415 20.5104C309.968 21.0636 310.865 21.0636 311.418 20.5104L315.425 16.5035L319.432 20.5104ZM14 9C11.2386 9 9 11.2386 9 14V108C9 110.761 11.2386 113 14 113H108C110.761 113 113 110.761 113 108V14C113 11.2386 110.761 9 108 9H14Z" fill="#141414"/>
<path fill-rule="evenodd" clip-rule="evenodd" d="M49.4943 36.1531C48.6753 36.3274 48.0898 37.0506 48.0898 37.888V74.3812C46.5457 73.5423 44.7762 73.0657 42.8954 73.0657C36.8781 73.0657 32 77.9438 32 83.9612C32 89.9785 36.8781 94.8566 42.8954 94.8566C48.9128 94.8566 53.7909 89.9785 53.7909 83.9612C53.7909 83.7429 53.7845 83.5261 53.7718 83.311C53.7843 83.2445 53.7909 83.1659 53.7909 83.0743V52.2103C53.7909 51.3702 54.3803 50.6453 55.2028 50.4739L82.0613 44.8784C83.1628 44.6489 84.1968 45.4897 84.1968 46.6148V67.6098C82.6231 66.7275 80.8082 66.2244 78.8757 66.2244C72.8583 66.2244 67.9803 71.1024 67.9803 77.1198C67.9803 83.1372 72.8583 88.0153 78.8757 88.0153C84.6469 88.0153 89.3701 83.5283 89.7469 77.8525C89.7629 77.8012 89.7712 77.7272 89.7712 77.6266V77.1198V29.7743C89.7712 28.6462 88.7318 27.8047 87.6284 28.0395L49.4943 36.1531Z" fill="#141414"/>
</svg>
