<svg width="560" height="125" viewBox="0 0 560 125" fill="none" xmlns="http://www.w3.org/2000/svg">
<path fill-rule="evenodd" clip-rule="evenodd" d="M0 8C0 3.58172 3.58172 0 8 0H552C556.418 0 560 3.58172 560 8V117C560 121.418 556.418 125 552 125H7.99998C3.5817 125 0 121.418 0 117V8ZM10 32C10 29.2386 12.2386 27 15 27H185C187.761 27 190 29.2386 190 32V49C190 51.7614 187.761 54 185 54H15C12.2386 54 10 51.7614 10 49V32ZM15 75C12.2386 75 10 77.2386 10 80V97C10 99.7614 12.2386 102 15 102H185C187.761 102 190 99.7614 190 97V80C190 77.2386 187.761 75 185 75H15Z" fill="white"/>
</svg>
