<svg width="560" height="125" viewBox="0 0 560 125" fill="none" xmlns="http://www.w3.org/2000/svg">
<path fill-rule="evenodd" clip-rule="evenodd" d="M0 8C0 3.58172 3.58172 0 8 0H552C556.418 0 560 3.58172 560 8V117C560 121.418 556.418 125 552 125H7.99998C3.5817 125 0 121.418 0 117V8ZM14 32C14 29.2386 16.2386 27 19 27H188C190.761 27 193 29.2386 193 32V49C193 51.7614 190.761 54 188 54H19C16.2386 54 14 51.7614 14 49V32ZM20 75C17.2386 75 15 77.2386 15 80V97C15 99.7614 17.2386 102 20 102H189C191.761 102 194 99.7614 194 97V80C194 77.2386 191.761 75 189 75H20Z" fill="white"/>
</svg>
