<svg width="35" height="33" viewBox="0 0 35 33" fill="none" xmlns="http://www.w3.org/2000/svg">
<path fill-rule="evenodd" clip-rule="evenodd" d="M35 0H0V33H35V0ZM12.4149 12.4465C11.8617 11.8868 11.8617 10.9794 12.4149 10.4198C12.9682 9.86009 13.8652 9.86009 14.4184 10.4198L18.4253 14.4733L22.4323 10.4198C22.9855 9.86008 23.8825 9.86008 24.4358 10.4198C24.989 10.9794 24.989 11.8868 24.4358 12.4465L20.4288 16.5L24.4357 20.5535C24.989 21.1132 24.989 22.0206 24.4357 22.5802C23.8825 23.1399 22.9855 23.1399 22.4323 22.5802L18.4253 18.5268L14.4184 22.5802C13.8652 23.1399 12.9682 23.1399 12.4149 22.5802C11.8617 22.0206 11.8617 21.1132 12.4149 20.5535L16.4219 16.5L12.4149 12.4465Z" fill="white"/>
</svg>
