<svg width="12" height="12" viewBox="0 0 12 12" fill="none" xmlns="http://www.w3.org/2000/svg">
<rect x="1.41177" y="6.35294" width="9.17647" height="5.64706" fill="#7B7B7B"/>
<rect x="2.11765" y="4.94118" width="1.41176" height="3.52941" fill="#7B7B7B"/>
<path fill-rule="evenodd" clip-rule="evenodd" d="M9.88235 4.58824C9.88235 4.60788 9.88221 4.62749 9.88191 4.64706H8.47059L8.47059 4.94118L8.47059 4.75H8.46538C8.46883 4.69652 8.47059 4.64258 8.47059 4.58824C8.47059 3.22377 7.36447 2.11765 6 2.11765C4.63553 2.11765 3.52941 3.22377 3.52941 4.58824C3.52941 4.64258 3.53117 4.69652 3.53462 4.75H3.52941V6.56H4.51116C4.92518 6.87311 5.4409 7.05882 6 7.05882C6.5591 7.05882 7.07482 6.87311 7.48884 6.56H8.47059L8.47059 4.94118V7.58318C7.79934 8.13754 6.93856 8.47059 6 8.47059C3.85583 8.47059 2.11765 6.7324 2.11765 4.58824C2.11765 2.44408 3.85583 0.705887 6 0.705887C8.14416 0.705887 9.88235 2.44408 9.88235 4.58824Z" fill="#7B7B7B"/>
</svg>
