<svg width="560" height="92" viewBox="0 0 560 92" fill="none" xmlns="http://www.w3.org/2000/svg">
<path fill-rule="evenodd" clip-rule="evenodd" d="M560 0L0 0L0 92H560V0ZM15 10C12.2386 10 10 12.2386 10 15V77C10 79.7614 12.2386 82 15 82H78C80.7614 82 83 79.7614 83 77V15C83 12.2386 80.7614 10 78 10H15Z" fill="#141414"/>
<rect x="58.0576" y="31.6415" width="5.48788" height="47.4191" rx="1" transform="rotate(45 58.0576 31.6415)" fill="#141414"/>
<path d="M65.5892 26.8001C66.3012 26.6446 66.9351 27.2785 66.7796 27.9905L64.3724 39.0123C64.2037 39.7848 63.2475 40.0652 62.6884 39.506L54.0737 30.8913C53.5146 30.3322 53.7949 29.376 54.5674 29.2073L65.5892 26.8001Z" fill="#141414"/>
<path fill-rule="evenodd" clip-rule="evenodd" d="M66.7797 69.5707C66.9352 70.2827 66.3014 70.9165 65.5894 70.761L54.5676 68.3539C53.7951 68.1852 53.5147 67.229 54.0738 66.6698L55.7338 65.0099C56.1244 64.6193 56.1244 63.9862 55.7338 63.5956L48.2629 56.1247C47.8724 55.7342 47.8724 55.101 48.2629 54.7105L50.7292 52.2442C51.1197 51.8537 51.7529 51.8537 52.1434 52.2442L59.6143 59.7151C60.0049 60.1056 60.638 60.1056 61.0286 59.7151L62.6885 58.0552C63.2477 57.496 64.2039 57.7764 64.3726 58.5489L66.7797 69.5707ZM41.484 42.9991C41.8745 42.6085 41.8745 41.9754 41.484 41.5848L29.7584 29.8591C29.3678 29.4686 28.7347 29.4686 28.3442 29.8591L25.8779 32.3254C25.4873 32.716 25.4873 33.3491 25.8779 33.7397L37.6035 45.4654C37.994 45.8559 38.6272 45.8559 39.0177 45.4654L41.484 42.9991Z" fill="#141414"/>
</svg>
